<svg width="328" height="273" viewBox="0 0 328 273" fill="none" xmlns="http://www.w3.org/2000/svg">
<g id="[Download] Illustration">
<g id="Group 49">
<g id="Group 48">
<g id="Scene/Home">
<g id="Background Shape 2" opacity="0.504511">
<path id="Background Shape" fill-rule="evenodd" clip-rule="evenodd" d="M303.692 185.456C307.766 211.43 208.982 228.372 123.957 216.549C38.9319 204.725 -0.0736065 158.552 40.499 133.95C81.0716 109.347 299.619 159.481 303.692 185.456Z" fill="#F2F2F2"/>
</g>
<path id="Leaf Bottom" fill-rule="evenodd" clip-rule="evenodd" d="M181.493 77.2184C183.03 76.2168 185.414 76.8551 186.962 77.4464C187.558 77.6744 189.081 78.4036 190.211 79.2243C190.062 78.6555 189.929 78.0816 189.812 77.5031C189.334 75.1243 189.005 72.7004 188.847 70.2906C188.806 69.662 188.859 68.9598 188.914 68.2483C188.932 68.0072 188.951 67.7652 188.966 67.5245C188.904 67.4677 188.862 67.3892 188.844 67.2829C188.838 67.3269 188.834 67.3623 188.831 67.3894C188.827 67.4326 188.824 67.4545 188.817 67.4568C188.808 67.4592 188.794 67.4406 188.765 67.4028C188.754 67.3884 188.741 67.3711 188.725 67.3511C187.581 65.8926 186.621 64.2492 186.489 62.4426C186.378 60.9104 187.854 58.0114 189.946 60.0183C190.882 60.9146 190.639 67.2091 189.233 67.5948C189.609 69.6806 190.081 71.7629 190.672 73.8187C190.761 73.8053 190.852 73.8041 190.941 73.8145C190.932 73.3034 190.932 72.7457 190.956 72.5539C191.167 70.9019 192.785 67.5479 195.361 68.1991C197.34 68.6995 196.127 70.7596 195.453 71.6613C194.369 73.113 193.142 73.7416 191.589 74.4965C191.558 74.8085 191.322 74.9899 191.044 75.0488C192.084 78.3688 193.45 81.6069 195.239 84.6655L195.286 84.471C195.513 83.5426 195.778 82.4602 195.946 82.2329C196.822 81.0431 198.762 79.5898 200.552 80.2938C204.31 81.7745 200.231 86.03 197.031 86.4929C196.898 86.6497 196.758 86.7758 196.608 86.8481C197.229 87.7713 197.894 88.6754 198.605 89.5562C199.671 90.8809 200.817 92.2015 202.018 93.5143C202.055 92.4874 202.53 90.1986 202.665 89.9527C203.486 88.4593 205.85 86.9227 207.768 87.9836C209.926 89.1798 207.97 91.4401 206.739 92.463C206.235 92.8824 203.74 94.4193 202.86 94.4263C205.762 97.522 208.965 100.565 212.222 103.498C211.952 102.185 211.6 98.569 211.639 98.1677C211.842 96.0964 213.437 92.7834 216.581 93.5906C219.632 94.3726 218.282 97.8143 217.238 99.455C216.606 100.448 215.731 101.457 214.677 102.149C214.487 102.274 214.238 102.376 213.991 102.478C213.692 102.6 213.393 102.723 213.199 102.885C213.025 103.029 212.972 103.195 212.919 103.359C212.863 103.533 212.808 103.705 212.611 103.849C214.372 105.427 216.144 106.972 217.891 108.474C218.715 109.183 219.555 109.878 220.402 110.565C220.866 110.401 221.527 110.617 221.493 111.177C221.488 111.258 221.466 111.329 221.436 111.393C222.078 111.903 222.725 112.409 223.376 112.91C223.361 112.764 223.366 112.558 223.395 112.274C222.926 112.843 222.946 112.014 222.961 111.382L222.961 111.382C222.966 111.159 222.971 110.96 222.953 110.856C222.884 110.45 222.795 110.048 222.706 109.647L222.706 109.646C222.516 108.789 222.326 107.934 222.336 107.048C222.356 105.169 223.751 102.02 226.687 103.139C229.386 104.166 228.404 106.95 227.385 108.696C226.741 109.801 225.859 110.788 224.937 111.732C224.773 111.901 224.59 112.129 224.41 112.355C224.141 112.691 223.877 113.021 223.682 113.144C226.188 115.061 228.753 116.921 231.318 118.781L231.318 118.781C232.467 119.615 233.616 120.448 234.76 121.287C234.81 121.103 234.851 120.92 234.886 120.749C234.815 120.818 234.718 120.851 234.593 120.844C234.559 120.703 234.511 120.516 234.453 120.291C233.747 117.543 231.595 109.172 237.421 110.795C241.689 111.987 238.676 119.275 235.493 121.824C237.425 123.248 239.338 124.689 241.207 126.174C242.559 127.248 243.871 128.36 245.134 129.508C244.481 128.021 243.865 126.096 244.269 124.565C244.857 122.336 247.613 120.231 250.304 121.5C253.658 123.088 251.077 125.256 248.657 127.29C247.422 128.328 246.228 129.332 245.888 130.204C249.9 133.971 253.326 138.155 255.615 142.921C258.105 148.104 260.416 155.068 259.138 160.867C259.374 158.317 258.364 155.116 257.656 152.867L257.656 152.867C257.559 152.561 257.468 152.273 257.387 152.006C256.322 148.519 254.809 145.126 252.815 141.95C249.621 136.864 245.402 132.546 240.532 128.626C239.423 128.956 238.218 129.567 237.22 130.072C236.609 130.383 236.075 130.653 235.688 130.796C233.825 131.482 230.246 132.465 229.059 130.304C227.892 128.179 230.872 126.99 232.718 126.514C234.503 126.054 236.111 126.109 237.776 126.486C235.198 124.535 232.557 122.646 229.917 120.758L229.913 120.755C229.428 120.408 228.944 120.062 228.46 119.715C227.789 120.185 227.048 120.864 226.261 121.585C223.762 123.873 220.803 126.583 218.16 124.369C214.171 121.027 221.8 117.63 225.05 117.895C225.449 117.927 225.835 117.999 226.211 118.097C222.897 115.695 219.634 113.244 216.548 110.621C215.994 110.707 215.112 111.402 214.053 112.238C211.672 114.116 208.396 116.701 205.927 114.666C204.146 113.196 204.756 110.908 206.478 109.599C208.207 108.285 210.714 108.287 212.844 108.73C213.766 108.92 214.615 109.283 215.407 109.726L215.506 109.731C212.469 107.122 209.413 104.455 206.471 101.696C206.419 101.71 206.367 101.725 206.314 101.74C206.136 101.926 205.838 101.994 205.565 101.953C205.415 101.997 205.261 102.042 205.104 102.088C202.773 102.775 199.777 103.658 197.454 103.277C195.744 102.997 194.193 101.81 195.64 100.349C196.817 99.1612 200.009 99.3319 201.566 99.6133C202.326 99.7508 203.153 100.149 203.983 100.549L203.983 100.549C204.332 100.717 204.681 100.885 205.026 101.034C205.115 100.88 205.272 100.781 205.45 100.733C202.544 97.9613 199.771 95.0936 197.256 92.1012C196.494 92.2019 195.65 92.4873 194.779 92.7817C192.684 93.4901 190.435 94.2504 188.821 92.613C186.439 90.1951 190.92 88.7839 193.05 89.0136C193.769 89.091 194.478 89.265 195.163 89.4949C193.333 87.0313 191.935 84.3979 190.953 81.6322C190.944 81.6363 190.935 81.6405 190.926 81.6447L190.926 81.6448C190.912 81.6514 190.898 81.658 190.882 81.6644C190.907 81.6525 190.928 81.6396 190.952 81.6276C190.854 81.3509 190.76 81.073 190.67 80.7941C190.504 80.715 190.348 80.6568 190.274 80.6328C191.242 81.2025 187.159 81.4812 186.394 81.5334C184.703 81.6486 182.439 81.6916 181.198 80.5094C180.157 79.5164 180.218 78.0493 181.493 77.2184ZM259.319 160.875C259.247 161.715 259.07 162.485 258.737 163.119C258.987 162.397 259.178 161.646 259.319 160.875Z" fill="#F2F2F2"/>
<path id="Leaf Top" opacity="0.2" fill-rule="evenodd" clip-rule="evenodd" d="M104.737 23.552C103.615 22.8282 101.874 23.2906 100.744 23.7186C100.309 23.8837 99.1959 24.4114 98.3704 25.0052C98.4797 24.5938 98.5772 24.1789 98.6623 23.7605C99.0124 22.0402 99.2539 20.2874 99.3706 18.5449C99.401 18.0904 99.3621 17.5826 99.3226 17.0681C99.3093 16.8938 99.2959 16.7188 99.285 16.5448C99.3303 16.5036 99.3608 16.4469 99.3736 16.37C99.3784 16.4018 99.3811 16.4274 99.3831 16.447C99.3864 16.4782 99.3881 16.4941 99.3939 16.4958C99.3999 16.4975 99.4103 16.484 99.4315 16.4567C99.4396 16.4462 99.4492 16.4337 99.4609 16.4193C100.296 15.3643 100.998 14.1756 101.095 12.8693C101.178 11.7613 100.101 9.66554 98.5724 11.1173C97.8886 11.7657 98.0634 16.3172 99.0897 16.5957C98.8146 18.104 98.4689 19.6098 98.0361 21.0966C97.9713 21.0869 97.9053 21.0861 97.84 21.0937C97.8464 20.7241 97.8473 20.3208 97.8295 20.1821C97.6764 18.9876 96.4964 16.5628 94.6154 17.0345C93.17 17.397 94.0549 18.8863 94.5464 19.5381C95.3374 20.5875 96.2328 21.0416 97.3665 21.587C97.3891 21.8126 97.5613 21.9437 97.7646 21.9862C97.0037 24.3872 96.0045 26.7291 94.6975 28.9413L94.6629 28.8008C94.4975 28.1296 94.3046 27.3469 94.1823 27.1825C93.5429 26.3224 92.1267 25.2722 90.82 25.7818C88.0756 26.8537 91.052 29.9296 93.3878 30.2633C93.4848 30.3766 93.5875 30.4677 93.6967 30.52C93.2424 31.1878 92.757 31.8417 92.2375 32.4788C91.4586 33.4371 90.6214 34.3923 89.7438 35.342C89.7172 34.5994 89.371 32.9446 89.2727 32.7668C88.6744 31.6872 86.9486 30.5769 85.5475 31.3446C83.9718 32.2102 85.3991 33.844 86.2972 34.5833C86.6652 34.8864 88.4861 35.9969 89.1286 36.0017C87.0083 38.2412 84.6681 40.4424 82.2888 42.5641C82.4864 41.6147 82.7453 39.0001 82.7167 38.7099C82.57 37.2122 81.4063 34.8171 79.1103 35.4018C76.8829 35.9682 77.8666 38.4565 78.6283 39.6425C79.0896 40.3603 79.7277 41.0896 80.4973 41.59C80.6361 41.6801 80.8173 41.7537 80.9982 41.8272C81.2163 41.9158 81.434 42.0042 81.5763 42.1212C81.703 42.2256 81.7419 42.3454 81.7804 42.4643C81.8211 42.5898 81.8614 42.7142 82.0045 42.818C80.7187 43.9596 79.4239 45.0775 78.1477 46.1644C77.5455 46.6774 76.9324 47.1804 76.3133 47.6772C75.9748 47.5587 75.4919 47.7149 75.5168 48.12C75.5204 48.1788 75.5365 48.2295 75.5581 48.2761C75.089 48.6449 74.6168 49.0111 74.1409 49.3733C74.1518 49.2679 74.1487 49.1191 74.127 48.9138C74.4693 49.3252 74.4553 48.7257 74.4446 48.2687C74.4409 48.1072 74.4375 47.9635 74.4504 47.8885C74.501 47.5948 74.5662 47.304 74.6314 47.0137C74.7707 46.3933 74.9095 45.775 74.9029 45.1349C74.8888 43.7762 73.8717 41.499 71.728 42.309C69.7569 43.0525 70.4727 45.0659 71.2154 46.3281C71.6855 47.1268 72.329 47.8399 73.0017 48.5225C73.1216 48.6444 73.2547 48.8094 73.3865 48.9728L73.3865 48.9728C73.5821 49.2153 73.7749 49.4543 73.9174 49.5432C72.0869 50.9299 70.2132 52.2758 68.3395 53.6219L68.3393 53.622C67.5001 54.2249 66.6608 54.8278 65.8254 55.4343C65.7891 55.3013 65.7592 55.1694 65.7334 55.046C65.7856 55.0958 65.8566 55.119 65.9478 55.1145C65.9722 55.0124 66.0074 54.8769 66.0498 54.7141C66.5667 52.7267 68.1412 46.6736 63.8871 47.8485C60.7703 48.7117 62.9668 53.9809 65.2899 55.8234C63.8788 56.8533 62.4811 57.8964 61.1161 58.9706C60.1283 59.7478 59.1697 60.5517 58.2476 61.3822C58.7251 60.3071 59.1753 58.9153 58.8811 57.8078C58.4526 56.1963 56.4414 54.6754 54.4764 55.5934C52.0267 56.7427 53.9098 58.31 55.6757 59.7798C56.5774 60.5303 57.4485 61.2553 57.6966 61.8863C54.7652 64.6108 52.2621 67.6374 50.5887 71.0845C48.7687 74.8332 47.0783 79.8698 48.009 84.0625C47.8378 82.2188 48.5762 79.9035 49.0947 78.2775C49.1653 78.0561 49.2318 77.8474 49.2914 77.6545C50.0705 75.1326 51.1768 72.6788 52.634 70.3818C54.9681 66.7029 58.0502 63.5795 61.6081 60.7434C62.4177 60.9815 63.2969 61.4228 64.0251 61.7882C64.4717 62.0123 64.8615 62.2079 65.1436 62.3106C66.504 62.8063 69.116 63.5163 69.9838 61.9531C70.8371 60.4158 68.662 59.5573 67.314 59.2134C66.0112 58.8815 64.8366 58.9222 63.621 59.1952C65.504 57.7838 67.433 56.417 69.3616 55.0506L69.3618 55.0504L69.3627 55.0498C69.7172 54.7986 70.0717 54.5475 70.4258 54.296C70.9157 54.6355 71.4566 55.1262 72.031 55.6472C73.854 57.3009 76.0137 59.2601 77.9445 57.6578C80.8584 55.2399 75.2897 52.786 72.9165 52.9788C72.6252 53.0023 72.3433 53.0543 72.0684 53.1251C74.4895 51.3874 76.8732 49.6141 79.1276 47.7161C79.5321 47.7783 80.1755 48.281 80.9485 48.8849C82.6856 50.2421 85.077 52.1105 86.8801 50.6378C88.1817 49.5747 87.7372 47.9199 86.4803 46.9742C85.2184 46.0244 83.3881 46.0268 81.8322 46.3476C81.1597 46.4855 80.5391 46.7486 79.9605 47.0691L79.8887 47.0725C82.1072 45.1851 84.3392 43.2554 86.4891 41.2599C86.5266 41.27 86.565 41.2805 86.6035 41.2911C86.7334 41.4256 86.9509 41.4747 87.1502 41.4449C87.2599 41.4766 87.3721 41.5093 87.4866 41.5427C89.1882 42.0386 91.3753 42.6759 93.0718 42.3999C94.3205 42.1967 95.4537 41.3382 94.3976 40.2823C93.5389 39.4236 91.2078 39.548 90.0709 39.752C89.5161 39.8517 88.912 40.14 88.3059 40.4293C88.0512 40.5508 87.7962 40.6725 87.5443 40.7805C87.479 40.669 87.3649 40.5974 87.235 40.5631C89.358 38.5578 91.3838 36.4833 93.2215 34.3187C93.7772 34.3912 94.3935 34.5974 95.0292 34.81C96.5588 35.3216 98.2004 35.8706 99.3795 34.6861C101.12 32.937 97.8491 31.918 96.2937 32.0847C95.7685 32.1409 95.2506 32.267 94.7505 32.4334C96.0878 30.6514 97.1095 28.7468 97.8276 26.7466C97.8455 26.7542 97.8597 26.7623 97.88 26.7698C97.8693 26.7649 97.8598 26.7597 97.8503 26.7546C97.8433 26.7508 97.8363 26.747 97.8288 26.7433C97.9005 26.5432 97.9693 26.3422 98.0348 26.1405C98.1563 26.0832 98.2698 26.0411 98.3242 26.0238C97.6173 26.4359 100.598 26.6362 101.157 26.6737C102.391 26.7565 104.044 26.7869 104.951 25.9316C105.711 25.2133 105.668 24.1525 104.737 23.552ZM47.8242 83.8972C47.8787 84.4571 48.0407 84.9681 48.3596 85.3868C48.1255 84.9082 47.9499 84.4098 47.8242 83.8972Z" fill="#533B1F"/>
<g id="Plant Right" opacity="0.7">
<path id="Leaf Me Alone!" fill-rule="evenodd" clip-rule="evenodd" d="M262.235 155.22C266.136 155.017 270.96 157.294 271.376 161.534C271.678 164.615 271.584 167.687 272.052 170.763C272.426 173.221 273.218 175.581 274.297 177.821C275.334 179.974 277.487 181.807 278.046 184.108C278.403 185.574 278.203 187.636 277.711 189.07C277.113 190.813 277.431 190.675 278.623 192.138C280.96 195.005 283.064 197.944 284.551 201.368C286.694 206.3 288.099 212.064 287.304 217.462C287.203 218.147 287.083 220.607 286.139 220.779C285.085 220.972 285.578 219.565 285.634 219.11C285.993 216.21 286.311 213.676 285.879 210.731C284.209 199.368 276.057 191.881 270.749 182.237C270.458 181.74 269.842 180.555 269.413 179.774C268.737 178.541 268.057 176.193 267.142 175.279C265.418 173.556 267.003 177.02 267.339 177.681C267.764 178.518 268.231 179.407 268.666 180.14C270.658 183.537 272.88 187.246 274.937 190.748C266.042 192.775 259.777 182.081 257.39 175.05C255.424 169.258 253.07 155.715 262.235 155.22Z" fill="#D2801B"/>
<path id="Leaf Me Alone!_2" fill-rule="evenodd" clip-rule="evenodd" d="M314.516 144.463C307.995 144.98 303.809 149.283 301.86 155.301C300.81 158.544 300.689 161.876 300.106 165.209C299.228 170.224 297.339 174.024 293.647 177.596C292.503 178.703 291.661 179.839 291.062 181.054C289.872 182.268 288.837 183.641 288.077 185.32C287.105 187.464 286.83 190.036 287.952 192.174C288.254 192.748 289.006 193.902 289.786 194.426C286.867 200.643 285.261 207.452 285.442 214.253C285.552 218.358 285.752 222.465 285.986 226.565C286.049 227.665 286.407 229.483 286.946 227.637C287.439 225.948 286.821 223.297 286.763 221.533C286.485 212.938 286.247 205.124 289.785 197.094C290.156 196.253 290.55 195.418 290.959 194.59C290.983 194.576 291.006 194.559 291.028 194.542C291.044 194.554 291.058 194.567 291.074 194.579C291.1 194.533 291.136 194.477 291.177 194.415C291.295 194.294 291.398 194.141 291.495 193.97C291.809 193.535 292.164 193.024 292.166 192.744C292.166 192.742 292.165 192.739 292.165 192.736C294.355 189.161 296.863 185.783 299.426 182.471C299.407 182.495 302.205 178.685 301.772 180.792C301.564 181.807 299.505 183.741 298.674 184.817C296.835 187.21 294.675 190.242 292.881 193.174C292.639 193.313 292.298 193.994 292.051 194.502C291.915 194.759 291.788 195.018 291.663 195.244C298.022 197.345 302.969 193.113 306.342 188.19C306.346 188.185 306.349 188.179 306.353 188.173C307.38 186.813 308.431 185.462 309.745 184.387C311.936 182.593 314.283 182.276 316.867 181.393C323.914 178.986 326.91 169.853 327.862 163.077C328.935 155.432 323.684 143.709 314.516 144.463Z" fill="#FF9B21"/>
<path id="Leaf Me Alone!_3" fill-rule="evenodd" clip-rule="evenodd" d="M301.635 123.054C294.943 130.019 291.709 139.68 289.149 148.763C286.29 158.907 284.401 169.208 284.328 179.754C284.281 186.684 284.092 193.656 284.497 200.577C284.64 203.036 284.885 205.498 285.275 207.93C285.307 208.129 286.179 213.559 287.013 212.294C287.487 211.574 286.119 206.661 286.016 205.843C285.434 201.234 285.299 196.592 285.328 191.95C285.374 184.307 285.149 176.703 285.924 169.088C286.039 167.951 286.131 166.757 286.401 165.645C286.687 164.462 286.322 164.978 287.256 164.51C288.164 164.055 289.285 164.12 290.227 163.549C293.962 161.284 295.872 155.467 297.359 151.65C299.06 147.285 300.094 142.63 300.92 138.036C301.526 134.661 301.959 131.307 302.205 127.888C302.282 126.811 302.287 125.684 302.498 124.625C302.555 124.339 302.842 123.833 302.831 123.58C302.809 123.045 302.486 122.73 302.459 122.28C302.179 122.532 301.904 122.79 301.635 123.054Z" fill="#FF9B21"/>
<path id="Base" fill-rule="evenodd" clip-rule="evenodd" d="M265.143 215.857C265.143 227.376 274.481 236.714 286 236.714C297.519 236.714 306.857 227.376 306.857 215.857" fill="#FF9B21"/>
<path id="Leaf Me Alone!_4" fill-rule="evenodd" clip-rule="evenodd" d="M300.294 197.596C305.456 197.215 311.22 201.379 313.71 205.713C315.718 209.207 315.379 213.796 314.14 217.508C313.309 219.993 311.497 223.536 308.476 223.571C304.695 223.614 304.513 218.942 304.44 216.21C304.343 212.579 303.884 209.415 301.022 206.94C300.669 206.634 300.298 206.348 299.927 206.062C299.598 205.808 299.269 205.554 298.953 205.287C298.902 205.244 298.851 205.201 298.8 205.159C297.788 204.308 296.725 203.415 296.596 202.013C296.408 199.982 297.555 199.616 299.306 199.993C299.363 200.006 299.516 200.064 299.725 200.143C300.619 200.482 302.527 201.205 302.166 200.34C302.03 200.015 301.534 199.756 300.907 199.563C299.286 199.387 297.352 199.182 296.796 199.304C290.798 200.62 288.462 208.93 287.842 214.209C287.775 214.779 287.721 215.351 287.674 215.923H286.571C286.648 214.541 286.749 213.16 286.98 211.793C287.864 206.564 290.629 198.883 296.692 198.034C296.915 198.003 297.738 197.997 298.735 198.056C299.207 197.792 299.736 197.632 300.294 197.596Z" fill="#D2801B"/>
</g>
<g id="Plant Left" opacity="0.5">
<path id="Leaf" fill-rule="evenodd" clip-rule="evenodd" d="M57.2066 117.127C58.4072 115.415 60.6353 111.067 62.3252 110.455C63.4137 110.061 63.0963 114.137 63.1098 114.914C63.1621 117.921 62.8694 120.909 62.5079 123.891C61.8567 129.268 59.7271 134.057 56.8063 138.633C55.3033 140.988 53.5404 143.371 51.0987 144.841C49.9748 145.517 48.6224 145.631 47.5125 146.214C46.2198 146.892 46.9238 146.344 46.3412 147.691C45.5322 149.561 45.2735 151.974 44.8991 153.969C43.1804 163.13 39.0195 211.556 39.7409 220.874C39.8049 221.7 38.6533 221.897 38.5958 220.889C38.2902 215.543 40.9344 178.521 42.2684 166.413C43.6025 154.306 44.9525 143.61 46.3061 139.421C47.9482 134.339 50.9141 128.228 53.3829 123.489C54.5297 121.287 55.7796 119.162 57.2066 117.127Z" fill="#D2801B"/>
<path id="Leaf_2" fill-rule="evenodd" clip-rule="evenodd" d="M66.1183 176.508C69.2426 174.214 72.6244 178.543 69.7973 180.837C68.2343 182.105 66.6004 181.654 65.6805 180.597C65.0834 181.325 64.5245 182.086 63.9875 182.729C62.3512 184.688 60.8048 186.694 59.3268 188.746C56.2566 193.01 53.6254 197.514 50.8744 201.936C48.1594 206.301 45.4662 210.688 43.0054 215.163C40.9208 218.954 38.1423 223.415 37.4286 227.571C38.5115 218.756 42.6205 210.283 47.5137 202.511C52.3671 194.804 57.9369 186.386 65.4517 180.304C64.6869 179.179 64.6657 177.573 66.1183 176.508Z" fill="#533B1F"/>
<path id="Leaf_3" fill-rule="evenodd" clip-rule="evenodd" d="M6.83233 155.009C8.58069 155.351 11.4375 159.306 12.8786 160.813C14.5914 162.603 16.1452 164.512 17.61 166.512C20.7632 170.816 23.5832 175.393 25.9811 180.166C29.8904 187.946 33.0223 195.933 35.2952 204.405C36.6865 209.591 37.5873 214.967 38.1212 220.304C38.2221 221.311 39.2775 229.072 37.7567 229.281C36.3889 229.47 36.8113 223.388 36.7453 222.561C35.9994 213.228 33.7649 204.147 30.6567 195.35C29.9797 193.434 29.3507 191.087 28.268 189.362C27.4883 188.12 28.2624 188.553 26.8922 188.083C25.7157 187.68 24.3752 187.778 23.1704 187.284C20.553 186.21 18.4573 184.127 16.6202 182.031C13.0502 177.958 10.2211 173.551 8.74646 168.332C7.92841 165.438 7.17667 162.527 6.75949 159.543C6.65158 158.772 5.70623 154.789 6.83233 155.009Z" fill="#D2801B"/>
<path id="Leaf_4" fill-rule="evenodd" clip-rule="evenodd" d="M13.7318 89.2045C20.3175 100.626 25.7294 113.172 29.2238 125.879C31.3411 133.578 32.8217 141.478 34.2928 149.322C36.5706 161.466 38.7252 173.61 39.338 185.97C39.9546 198.402 41.1739 212.74 37.1031 224.714C39.1365 212.558 37.2006 199.618 36.8578 187.386C36.694 181.546 36.2193 175.764 35.5966 169.959C34.9924 164.327 34.0052 158.722 33.086 153.135C32.6382 150.414 32.1679 147.697 31.6891 144.982C31.5461 144.172 31.4858 141.768 30.9718 141.214C30.4546 140.657 27.8155 140.43 26.987 140.021C25.3185 139.198 23.7492 138.028 22.3602 136.793C19.6976 134.424 17.3813 131.329 15.5531 128.278C11.323 121.218 9.63187 112.603 9.71735 104.427C9.73378 102.839 12.2867 85.7456 11.2614 85.5102C11.3231 85.4379 11.3815 85.3633 11.4366 85.2856C12.2128 86.5853 12.9745 87.8938 13.7318 89.2045Z" fill="#FF9B21"/>
<path id="Leaf_5" fill-rule="evenodd" clip-rule="evenodd" d="M84.8132 130.396C84.9148 130.25 85.5762 129.23 85.2431 129.296C85.9212 129.163 84.3105 130.42 86 129.649C85.1978 130.406 85.6608 131.39 85.6715 132.41C85.6889 134.066 85.412 135.707 85.1002 137.327C84.6075 139.888 83.8735 142.378 82.8081 144.76C80.4861 149.95 76.5433 154.947 71.8624 158.192C69.5515 159.794 67.2868 160.34 64.6513 161.077C62.9866 161.543 62.8546 162.404 61.971 164.02C60.1313 167.384 58.3245 170.737 56.7021 174.215C54.7648 178.368 52.8842 182.526 51.1103 186.752C45.1341 200.988 40.2701 215.736 37.7157 231C37.6531 222.005 39.7339 212.741 42.3586 204.168C44.2705 197.922 46.7595 191.9 49.4143 185.94C50.0576 184.496 51.0324 182.638 51.3056 181.044C51.4969 179.927 50.9121 178.853 50.6443 177.676C49.6004 173.094 49.6751 167.961 50.5918 163.354C51.6025 158.274 54.5255 155.917 59.47 155.197C61.2783 154.934 63.5768 155.031 65.2349 154.259C67.0414 153.42 67.7866 150.66 68.8139 148.888C71.5731 144.129 74.8513 139.565 78.6157 135.556C79.658 134.445 80.779 133.421 81.9681 132.471C82.718 131.872 84.3021 131.134 84.8132 130.396Z" fill="#FF9B21"/>
<path id="Base_2" fill-rule="evenodd" clip-rule="evenodd" d="M27.9557 222.923C27.8285 222.06 28.497 221.286 29.369 221.286H46.9167C47.7887 221.286 48.4572 222.06 48.33 222.923L46.9737 232.119C46.5603 234.923 44.1545 237 41.3206 237H34.9651C32.1312 237 29.7254 234.923 29.312 232.119L27.9557 222.923Z" fill="#533B1F"/>
</g>
<g id="Maceta">
<path id="Base_3" fill-rule="evenodd" clip-rule="evenodd" d="M13.5479 225.987C13.5479 232.069 14.0279 236.999 20.4702 236.999C26.9124 236.999 27.3924 232.069 27.3924 225.987" fill="#F2F2F2"/>
<path id="Fill 27" fill-rule="evenodd" clip-rule="evenodd" d="M22.3867 222.192C22.1506 222.601 21.94 223.017 21.754 223.44C21.7475 222.569 21.7956 221.692 21.927 220.803C22.1517 219.281 22.4949 217.766 22.8174 216.254C23.0492 215.167 23.0345 213.215 23.9141 212.348C24.1553 212.161 24.2134 212.528 24.2134 212.688C24.2164 212.722 24.2127 212.037 23.9786 212.157C22.587 212.875 22.1361 215.135 21.6906 216.267C21.0405 217.918 20.4875 219.607 20.2597 221.325C20.2022 221.759 20.1709 222.193 20.1636 222.626C20.1163 222.51 20.0719 222.393 20.0228 222.278C19.2196 220.394 18.1356 218.556 16.7837 216.861C16.451 216.444 12.2669 212.328 11.9394 212.958C11.9717 213.05 12.0394 213.125 12.1425 213.186C12.1486 213.193 12.1488 213.189 12.1452 213.179C12.391 213.576 13.0896 214.189 13.3073 214.537C13.8549 215.412 14.2806 216.341 14.7132 217.252C15.6271 219.177 16.4749 221.122 17.2968 223.071C17.4881 223.525 17.6876 223.977 17.8911 224.427C15.7934 221.401 12.995 218.654 9.14287 217.082C10.4586 217.751 11.3212 219.01 12.2097 219.975C13.2813 221.138 14.41 222.269 15.4837 223.431C16.7501 224.802 18.2402 226.245 19.4582 227.761C20.6381 230.238 21.7846 232.718 22.4924 235.322C22.2024 234.422 22.4697 233.179 22.42 232.235C22.3806 231.484 22.2928 230.738 22.1724 229.994C22.3212 230.33 22.4495 230.666 22.5076 230.978C22.4545 230.454 22.3934 229.933 22.3278 229.415C22.4963 228.931 22.6617 228.478 22.7735 228.105C23.3463 226.194 24.0283 224.315 24.957 222.483C25.8164 220.789 26.8022 219.117 27.8764 217.495C28.3774 216.739 28.8854 215.986 29.3902 215.232C29.7206 214.738 30.0352 213.947 30.4952 213.474C27.5217 216.192 24.2731 218.93 22.3867 222.192Z" fill="#F2F2F2"/>
</g>
<g id="Top Leaves">
<path id="Leaf_6" fill-rule="evenodd" clip-rule="evenodd" d="M319.324 35.3797C318.472 32.5365 316.47 30.3111 314.393 28.2722C310.348 24.3028 308.173 21.8485 306.732 16.0421C305.884 12.6271 305.021 9.00834 302.333 6.53077C300.375 4.72655 297.006 3.21068 294.388 4.50265C290.36 6.90665 289.279 11.84 289.685 16.2576C290.188 21.7329 292.746 25.1089 297.659 27.1256C300.428 28.2614 302.268 29.76 303.771 32.3715C304.973 34.4596 305.674 37.0744 307.184 38.9674C309.443 41.7972 312.269 43.0551 315.752 42.5851C312.49 36.5818 308.677 30.5221 304.079 25.4676C303.649 24.9595 301.11 23.0145 301.622 22.1485C302.186 21.1949 304.792 24.7769 304.774 24.7552C306.11 26.2891 307.347 27.9191 308.561 29.5647C308.558 29.5663 308.554 29.5672 308.551 29.5688C309.801 31.2575 311.041 32.9709 312.258 34.7059C312.75 35.4398 313.229 36.1831 313.687 36.945C314.36 38.063 315.427 41.2361 316.528 41.9235C316.764 42.0705 316.982 42.1527 317.185 42.1866C317.936 43.4164 318.667 44.6561 319.362 45.9104C321.177 49.1864 322.735 52.6454 323.45 56.344C323.659 57.4235 323.511 61.4616 324.248 62.2409C325.596 63.6663 325.201 60.9214 325.12 60.0929C324.451 53.2319 321.988 47.3866 318.412 41.6186C319.51 40.1837 319.669 36.5317 319.324 35.3797Z" fill="#F2F2F2"/>
<path id="Leaf_7" fill-rule="evenodd" clip-rule="evenodd" d="M273.18 38.6943C274.6 37.0208 278.015 36.7369 280.103 36.8489C282.687 36.9875 285.341 37.6165 287.799 38.3771C291.849 39.6299 295.784 41.9161 299.35 44.1288C299.78 44.3955 305.075 47.5799 304.607 48.1387C304.142 48.6924 298.944 44.9098 297.786 44.2579C295.314 42.8663 293.046 41.2205 290.321 40.3016C287.5 39.3499 284.516 38.973 281.549 38.999C281.168 39.0024 279.926 38.7369 279.899 39.3003C279.873 39.8513 281.928 39.5638 282.29 39.5671C283.787 39.5808 285.293 39.7217 286.769 39.9811C289.534 40.4671 292.133 41.4461 294.501 42.9478C293.84 44.484 292.256 45.1924 290.595 44.8079C289.159 44.4755 287.759 43.6559 286.353 43.4189C285.384 43.2557 284.415 43.3528 283.475 43.6257C280.998 44.3456 279.57 45.8203 276.846 44.7945C274.711 43.9903 271.14 41.101 273.18 38.6943Z" fill="#F2F2F2"/>
<path id="Leaf Me Alone!_5" fill-rule="evenodd" clip-rule="evenodd" d="M267.072 11.729C263.918 11.499 260.396 14.016 258.875 16.6353C257.649 18.7471 257.855 21.5203 258.613 23.7639C259.12 25.266 260.227 27.4076 262.073 27.4285C264.383 27.4546 264.494 24.6305 264.539 22.9796C264.598 20.7847 264.879 18.8726 266.627 17.3765C266.843 17.1919 267.069 17.019 267.296 16.8462C267.497 16.6927 267.698 16.5393 267.891 16.3777C267.922 16.3519 267.954 16.326 267.985 16.3001C268.603 15.7861 269.252 15.2462 269.331 14.3989C269.446 13.1711 268.745 12.9501 267.675 13.1782C267.641 13.1856 267.547 13.2208 267.42 13.2686C266.873 13.4734 265.708 13.9105 265.928 13.388C266.011 13.1911 266.315 13.0351 266.697 12.9182C267.688 12.8116 268.869 12.688 269.209 12.7619C272.874 13.5573 274.301 18.5794 274.68 21.7703C274.722 22.1316 274.757 22.4941 274.787 22.8572H275.459C275.411 22.0045 275.35 21.1531 275.206 20.3099C274.666 17.1493 272.977 12.5072 269.273 11.9942C269.136 11.9751 268.634 11.9719 268.025 12.0072C267.736 11.8477 267.413 11.7512 267.072 11.729Z" fill="#F2F2F2"/>
</g>
</g>
<g id="Group">
<g id="Head">
<g id="Head_2">
<path id="Head_3" fill-rule="evenodd" clip-rule="evenodd" d="M102.579 144.237C104.939 145.66 107.258 146.348 108.346 146.067C111.076 145.363 111.327 135.371 109.215 131.432C107.103 127.493 96.2459 125.776 95.6987 133.58C95.5088 136.289 96.6454 138.707 98.3247 140.679L95.3135 154.724H104.06L102.579 144.237Z" fill="#B28B67"/>
</g>
<path id="hair" fill-rule="evenodd" clip-rule="evenodd" d="M110.04 133.201C109.954 132.69 109.742 132.123 109.571 131.64C109.351 131.017 109.018 130.456 108.651 129.926C107.96 128.93 107.132 128.03 106.217 127.284C104.546 125.92 102.419 125.133 100.327 125.389C99.2713 125.518 98.2461 125.921 97.3736 126.592C96.5852 127.198 95.8269 128.09 94.8061 128.154C93.6954 128.224 92.6772 127.243 91.7864 126.637C90.7821 125.954 89.7136 125.456 88.5397 125.263C86.5732 124.939 84.7258 125.604 83.3705 127.218C81.9283 128.936 80.8799 131.456 81.827 133.733C82.0031 134.156 82.2295 134.513 82.5546 134.808C82.8527 135.079 83.308 135.368 83.4288 135.801C83.5572 136.262 83.1737 136.856 83.025 137.271C82.812 137.867 82.637 138.491 82.6992 139.139C82.8014 140.201 83.4688 141.216 84.1735 141.914C84.8906 142.625 85.7732 143.033 86.7159 143.221C87.3454 143.346 87.9887 143.415 88.6284 143.368C88.946 143.345 89.2263 143.256 89.534 143.186C89.8332 143.118 90.0004 143.197 90.2543 143.362C91.4337 144.125 92.7017 144.42 94.0635 144.306C95.2128 144.211 96.5375 143.932 97.4751 143.144C98.5163 142.269 98.4956 141.062 98.2505 139.772C98.5101 139.901 99.2283 139.981 98.7991 139.468C98.6291 139.264 98.3079 139.182 98.0898 139.062C97.8358 138.923 97.5779 138.743 97.3807 138.516C96.5843 137.599 97.3887 135.734 98.3896 135.426C99.8767 134.97 100.21 137.074 101.271 137.619C101.882 137.932 102.52 137.504 102.977 137.067C103.59 136.482 104.008 135.707 104.368 134.918C104.665 134.268 104.941 133.609 105.244 132.963C105.385 132.661 105.874 131.807 105.629 131.466C106.694 131.253 107.88 131.696 108.798 132.277C109.177 132.517 109.466 132.782 109.668 133.206C109.711 133.297 109.806 133.567 109.924 133.578C110.145 133.598 110.062 133.329 110.04 133.201Z" fill="#191847"/>
</g>
<g id="Bottom">
<g id="Seat">
<path id="Seat_2" fill-rule="evenodd" clip-rule="evenodd" d="M72.5516 200.676C70.0269 200.676 67.9802 202.722 67.9802 205.247V241.327C67.9802 243.852 70.0269 245.899 72.5516 245.899H116.982C119.507 245.899 121.554 243.852 121.554 241.327V205.247C121.554 202.722 119.507 200.676 116.982 200.676H72.5516ZM79.3275 210.887C78.6963 210.887 78.1846 211.399 78.1846 212.03V234.544C78.1846 235.175 78.6963 235.687 79.3275 235.687H110.206C110.837 235.687 111.349 235.175 111.349 234.544V212.03C111.349 211.399 110.837 210.887 110.206 210.887H79.3275Z" fill="#C5CFD6"/>
</g>
<path id="LegLower" fill-rule="evenodd" clip-rule="evenodd" d="M157.691 244.075C150.506 235.295 145.644 228.785 143.106 224.547C138.76 217.29 135.203 210.832 134.081 208.365C131.404 202.483 140.243 199.729 142.243 202.472C145.271 206.625 151.738 219.692 161.642 241.675L157.691 244.075Z" fill="#B28B67"/>
<path id="LegLower_2" fill-rule="evenodd" clip-rule="evenodd" d="M142.967 241.522L129.595 207.837C126.735 201.697 140.547 197.66 142.649 200.518C147.421 207.006 158.763 232.599 160.185 234.532L142.967 241.522Z" fill="#2F3676"/>
<g id="Lower Leg">
<path id="LegLower_3" fill-rule="evenodd" clip-rule="evenodd" d="M107.352 234.767C109.957 230.965 119.432 218.172 124.593 212.879C126.076 211.358 127.523 209.898 128.891 208.538C132.959 204.494 141.06 211.291 136.999 214.974C126.887 224.146 112.133 236.528 110.9 237.632C109.173 239.18 105.715 237.157 107.352 234.767Z" fill="#B28B67"/>
</g>
<g id="Right Shoe">
<path id="shoe" fill-rule="evenodd" clip-rule="evenodd" d="M108.94 233.063C108.745 232.791 108.362 232.727 108.104 232.94C107.511 233.432 106.543 234.283 106.21 234.86C105.717 235.715 105.056 237.518 105.056 237.518C106.047 238.09 122.858 247.803 122.858 247.803C122.858 247.803 124.876 245.908 123.486 244.862C122.097 243.815 121.193 243.096 121.193 243.096L115.001 234.559C114.907 234.429 114.723 234.402 114.596 234.5L113.255 235.533C113.255 235.533 111.498 235.38 110.633 234.88C110.063 234.551 109.355 233.643 108.94 233.063Z" fill="#E4E4E4"/>
</g>
<g id="Right Shoe_2">
<path id="shoe_2" fill-rule="evenodd" clip-rule="evenodd" d="M155.455 242.286C155.15 242.148 154.786 242.284 154.67 242.597C154.402 243.32 153.989 244.542 153.989 245.208C153.989 246.194 154.318 248.087 154.318 248.087C155.461 248.087 174.873 248.087 174.873 248.087C174.873 248.087 175.674 245.436 173.948 245.225C172.222 245.013 171.08 244.843 171.08 244.843L161.452 240.548C161.305 240.482 161.133 240.551 161.071 240.7L160.426 242.266C160.426 242.266 158.828 243.012 157.829 243.012C157.171 243.012 156.105 242.58 155.455 242.286Z" fill="#E4E4E4"/>
</g>
<path id="Leg and Butt" fill-rule="evenodd" clip-rule="evenodd" d="M124.783 209.52C124.783 209.52 108.112 206.802 102.45 205.803C91.69 203.904 88.5525 198.11 90.4076 185.469L110.232 185.469C114.167 186.606 143.117 199.535 143.117 199.535C146.589 201.26 145.943 206.346 145.308 208.022C145.269 208.124 127.746 238.135 127.746 238.135L111.529 227.797L124.814 210.738C124.814 210.738 125.34 209.677 124.783 209.52Z" fill="#5C63AB"/>
</g>
<g id="Body/Long Sleeve 1">
<path id="Skin" fill-rule="evenodd" clip-rule="evenodd" d="M71.7696 201.371C72.8376 199.203 78.1735 171.299 78.1735 171.299L86.1539 171.329C86.1539 171.329 77.0368 200.888 76.4746 202.282C75.7442 204.093 76.9848 206.725 77.826 208.509C77.9561 208.785 78.0767 209.041 78.1789 209.27C77.0117 209.793 76.4511 209.161 75.8599 208.495C75.1923 207.743 74.4859 206.947 72.8228 207.721C72.1803 208.021 71.5723 208.374 70.9783 208.72C68.9265 209.913 67.0416 211.01 64.4775 209.426C64.0709 209.175 63.6255 208.23 64.7018 207.492C67.3833 205.652 71.2475 202.431 71.7696 201.371ZM138.982 190.499L128.658 180.42L125.229 186.358L135.964 192.691C138.656 196.935 140.237 198.768 140.707 198.192C141.103 197.706 140.922 197.173 140.754 196.682C140.624 196.3 140.502 195.944 140.67 195.654C141.051 194.994 143.206 195.372 145.236 195.818C147.267 196.265 146.797 195.267 146.365 194.746C144.447 193.197 141.985 191.781 138.982 190.499Z" fill="#B28B67"/>
<path id="Clothes Back" fill-rule="evenodd" clip-rule="evenodd" d="M102.491 148.645L105.643 148.104C110.607 165.665 136.114 177.635 137.68 184.2C138.254 186.607 136.523 187.824 137.417 188.557L133.321 191.558C132.627 190.748 131.147 192.23 128.056 191.193C124.964 190.157 102.491 169.438 102.491 148.645Z" fill="#E87613"/>
<path id="Clothes Front" fill-rule="evenodd" clip-rule="evenodd" d="M96.5721 144.956C95.9424 144.912 95.3964 145.387 95.3524 146.017L95.1811 148.468C89.2502 153.035 74.5509 166.683 70.7204 192.09C70.3181 194.758 71.0457 196.188 71.6271 197.33C72.0249 198.111 72.3541 198.758 72.2064 199.575L77.5673 201.056C77.5673 200.453 78.2429 199.994 79.1146 199.402C80.382 198.541 82.064 197.398 82.6859 195.121C83.2753 192.962 84.1385 190.265 85.1698 187.266C85.2672 191.238 86.0201 194.892 87.6601 197.918C91.7519 205.468 115.398 197.188 117.868 189.486C119.186 185.376 117.316 181.926 114.842 177.363C111.702 171.57 107.589 163.984 107.792 150.979L108.077 146.907C108.121 146.278 107.646 145.731 107.016 145.687L96.5721 144.956Z" fill="#FF9B21"/>
</g>
</g>
<g id="Head_4">
<g id="Head_5">
<path id="Head_6" fill-rule="evenodd" clip-rule="evenodd" d="M205.308 121.224C202.944 122.648 200.622 123.337 199.532 123.056C196.798 122.351 196.547 112.351 198.662 108.409C200.777 104.467 211.65 102.748 212.198 110.559C212.388 113.27 211.25 115.689 209.568 117.664L212.584 131.719H203.824L205.308 121.224Z" fill="#B28B67"/>
</g>
<g id="Turban">
<path id="Turban_2" fill-rule="evenodd" clip-rule="evenodd" d="M199.234 106.88C199.311 106.404 199.159 106.17 201.074 104.828C202.989 103.486 206.082 101.903 209.196 102.592C213.238 103.486 214.844 106.152 216.402 107.448C217.807 108.617 219.217 108.753 220.053 110.203C220.888 111.653 221.332 115.824 220.606 117.483C219.604 119.77 217.628 120.386 216.185 121.045C213.711 122.176 210.214 120.982 210.129 120.784C209.473 119.255 205.946 114.939 203.824 113.126C202.264 111.793 198.874 109.116 199.234 106.88Z" fill="#5C63AB"/>
<mask id="mask0_61_3339" style="mask-type:luminance" maskUnits="userSpaceOnUse" x="199" y="102" width="22" height="20">
<path id="Turban_3" fill-rule="evenodd" clip-rule="evenodd" d="M199.234 106.88C199.311 106.404 199.159 106.17 201.074 104.828C202.989 103.486 206.082 101.903 209.196 102.592C213.238 103.486 214.844 106.152 216.402 107.448C217.807 108.617 219.217 108.753 220.053 110.203C220.888 111.653 221.332 115.824 220.606 117.483C219.604 119.77 217.628 120.386 216.185 121.045C213.711 122.176 210.214 120.982 210.129 120.784C209.473 119.255 205.946 114.939 203.824 113.126C202.264 111.793 198.874 109.116 199.234 106.88Z" fill="white"/>
</mask>
<g mask="url(#mask0_61_3339)">
<path id="SHade" fill-rule="evenodd" clip-rule="evenodd" d="M211.258 117.931C215.446 112.765 216.432 106.535 216.432 106.535L217.694 107.333C217.694 107.333 216.142 114.141 211.258 117.931ZM209.664 120.769C216.443 114.813 218.059 108.119 218.059 108.119L219.519 108.55C219.519 108.55 217.508 116.035 209.664 120.769Z" fill="black" fill-opacity="0.2"/>
</g>
</g>
</g>
<g id="Bottom_2">
<path id="Leg" fill-rule="evenodd" clip-rule="evenodd" d="M218.411 162.541L204.697 207.463L198.053 245.667H192.844L199.864 162.541H218.411Z" fill="#997659"/>
<path id="Leg_2" fill-rule="evenodd" clip-rule="evenodd" d="M223.317 162.541C222.386 187.206 223.482 199.928 223.691 202.169C223.899 204.41 226.754 218.94 233.512 246.42L227.962 244.51C217.281 219.307 213.641 206.209 212.416 202.9C211.191 199.59 207.937 186.137 202.655 162.541H223.317Z" fill="#B28B67"/>
<g id="Left Shoe">
<path id="shoe_3" fill-rule="evenodd" clip-rule="evenodd" d="M232.616 244.005C232.921 243.866 233.285 244.002 233.401 244.316C233.669 245.04 234.082 246.263 234.082 246.93C234.082 247.918 233.754 249.813 233.754 249.813C232.61 249.813 213.198 249.813 213.198 249.813C213.198 249.813 212.397 247.159 214.123 246.947C215.85 246.736 216.992 246.565 216.992 246.565L226.619 242.265C226.766 242.199 226.939 242.268 227 242.417L227.645 243.984C227.645 243.984 229.243 244.732 230.242 244.732C230.901 244.732 231.966 244.299 232.616 244.005Z" fill="#E4E4E4"/>
</g>
<g id="Right Shoe_3">
<path id="shoe_4" fill-rule="evenodd" clip-rule="evenodd" d="M198.358 244.005C198.663 243.866 199.027 244.002 199.144 244.316C199.412 245.04 199.824 246.263 199.824 246.93C199.824 247.918 199.496 249.813 199.496 249.813C198.352 249.813 178.941 249.813 178.941 249.813C178.941 249.813 178.139 247.159 179.866 246.947C181.592 246.736 182.734 246.565 182.734 246.565L192.361 242.265C192.508 242.199 192.681 242.268 192.742 242.417L193.387 243.984C193.387 243.984 194.985 244.732 195.984 244.732C196.643 244.732 197.708 244.299 198.358 244.005Z" fill="#E4E4E4"/>
</g>
<path id="Bottom_3" fill-rule="evenodd" clip-rule="evenodd" d="M220.233 162.541L214.402 185.428H196.592L199.247 162.541H220.233Z" fill="#69A1AC"/>
<path id="Bottom_4" fill-rule="evenodd" clip-rule="evenodd" d="M223.513 162.541C226.391 171.184 224.607 185.428 224.607 185.428H206.432L201.434 162.541H223.513Z" fill="#89C5CC"/>
</g>
<g id="Body">
<path id="Skin_2" fill-rule="evenodd" clip-rule="evenodd" d="M168.073 126.153L182.349 128.332L179.669 134.641L168.138 129.88C163.124 130.283 160.706 130.124 160.884 129.402C161.033 128.793 161.569 128.618 162.062 128.456C162.446 128.331 162.804 128.213 162.935 127.906C163.233 127.204 161.632 125.711 160.052 124.359C158.472 123.007 159.553 122.782 160.229 122.813C162.623 123.413 165.238 124.526 168.073 126.153ZM176.607 162.344L186.949 152.273L190.381 158.204L179.628 164.534C176.932 168.774 175.348 170.606 174.877 170.03C174.48 169.545 174.662 169.013 174.83 168.522C174.961 168.14 175.083 167.784 174.915 167.495C174.534 166.835 172.375 167.214 170.342 167.66C168.309 168.107 168.779 167.11 169.212 166.589C171.133 165.041 173.599 163.626 176.607 162.344Z" fill="#B28B67"/>
<path id="Coat Back" fill-rule="evenodd" clip-rule="evenodd" d="M201.658 126.997C197.022 139.565 189.202 149.799 177.349 160.961L183.121 165.87C197.05 158.353 204.344 153.974 206.601 142.398C207.167 139.492 206.594 130.565 206.514 125.837L201.658 126.997Z" fill="#E87613"/>
<path id="Shirt" fill-rule="evenodd" clip-rule="evenodd" d="M224.681 163.464L196.85 167.376C196.85 167.376 202.261 137.259 200.958 126.501C200.914 126.136 201.498 125.398 201.808 125.441C205.212 125.903 208.718 123.765 208.718 123.765C216.805 133.43 220.919 146.151 224.681 163.464Z" fill="#F2F2F2"/>
<path id="Coat Front" fill-rule="evenodd" clip-rule="evenodd" d="M204.008 140.906C202.277 160.129 204.619 175.337 214.215 173.988L229.054 171.902C229.189 155.761 219.914 134.71 212.618 124.46C212.339 124.068 211.76 123.338 210.661 123.492L206.349 124.098C206.348 124.104 206.347 124.11 206.346 124.116C205.05 124.309 203.627 124.557 202.087 124.826C194.158 126.21 183.102 128.139 170.04 125.89L169.599 133.448C181.899 139.105 194.111 143.11 204.008 140.906Z" fill="#FF9B21"/>
</g>
</g>
</g>
</g>
</svg>
