<svg width="25" height="24" viewBox="0 0 25 24" fill="none" xmlns="http://www.w3.org/2000/svg">
<path fill-rule="evenodd" clip-rule="evenodd" d="M6.21794 3.99927L4.5 5.7172V9.15308L6.21794 10.871H9.65381L11.3717 9.15308V5.7172L9.65381 3.99927H6.21794ZM6.75222 5.28772H9.11954L10.0833 6.25148V8.6188L9.11954 9.58256H6.75222L5.78845 8.6188V6.25148L6.75222 5.28772Z" fill="white"/>
<path fill-rule="evenodd" clip-rule="evenodd" d="M6.21794 12.5896L4.5 14.3075V17.7434L6.21794 19.4613H9.65381L11.3717 17.7434V14.3075L9.65381 12.5896H6.21794ZM6.75222 13.8781H9.11954L10.0833 14.8418V17.2091L9.11954 18.1729H6.75222L5.78845 17.2091V14.8418L6.75222 13.8781Z" fill="white"/>
<path fill-rule="evenodd" clip-rule="evenodd" d="M14.8076 3.99927L13.0897 5.7172V17.7428L14.8076 19.4607H18.2435L19.9614 17.7428V5.7172L18.2435 3.99927H14.8076ZM15.3419 5.28772H17.7092L18.673 6.25148V17.2085L17.7092 18.1722H15.3419L14.3781 17.2085V6.25148L15.3419 5.28772Z" fill="white"/>
</svg>
