<svg width="24" height="25" viewBox="0 0 24 25" fill="none" xmlns="http://www.w3.org/2000/svg">
<path fill-rule="evenodd" clip-rule="evenodd" d="M4.21026 7.71038C4.49077 7.42987 4.94557 7.42987 5.22608 7.71038L6.12184 8.60614H17.7199L18.8235 7.67238C19.1248 7.41738 19.5759 7.45497 19.8309 7.75633C20.0859 8.05769 20.0483 8.50871 19.7469 8.76371L18.486 9.83067C18.3562 9.96033 18.177 10.0405 17.979 10.0405H5.86372C5.66665 10.0516 5.46588 9.98182 5.31532 9.83126L4.21026 8.7262C3.92975 8.44569 3.92975 7.99089 4.21026 7.71038ZM6.12184 16.6707L5.22608 17.5665C4.94557 17.847 4.49077 17.847 4.21026 17.5665C3.92975 17.286 3.92975 16.8312 4.21026 16.5507L5.31532 15.4456C5.46588 15.295 5.66665 15.2253 5.86373 15.2364H17.979C18.177 15.2364 18.3562 15.3165 18.486 15.4462L19.7469 16.5132C20.0483 16.7682 20.0859 17.2192 19.8309 17.5205C19.5759 17.8219 19.1248 17.8595 18.8235 17.6045L17.7199 16.6707H6.12184ZM17.9802 11.9213H5.82447V13.3557H17.9802V11.9213Z" fill="#080707"/>
</svg>
