<svg width="50" height="50" viewBox="0 0 50 50" fill="none" xmlns="http://www.w3.org/2000/svg">
<path d="M24.8802 47.1562C30.7051 47.1562 35.4271 42.4343 35.4271 36.6094C35.4271 30.7845 30.7051 26.0625 24.8802 26.0625C19.0553 26.0625 14.3333 30.7845 14.3333 36.6094C14.3333 42.4343 19.0553 47.1562 24.8802 47.1562Z" stroke="white" stroke-width="2" stroke-linecap="round" stroke-linejoin="round"/>
<path d="M24.8802 31.9401L26.3959 35.0156L29.7891 35.5078L27.336 37.901L27.9141 41.2812L24.8802 39.6849L21.8464 41.2812L22.4245 37.901L19.9714 35.5078L23.362 35.0156L24.8802 31.9401Z" fill="#FFA800" stroke="#FFA800" stroke-width="2" stroke-linecap="round" stroke-linejoin="round"/>
<path d="M34.2083 8.80725H27.8932H15.7239" stroke="white" stroke-width="2" stroke-linecap="round" stroke-linejoin="round"/>
<path d="M32.9661 2.70569H37.3047L40.9531 8.80725" stroke="white" stroke-width="2" stroke-linecap="round" stroke-linejoin="round"/>
<path d="M8.98175 8.80725L12.6302 2.70569H29.5495" stroke="white" stroke-width="2" stroke-linecap="round" stroke-linejoin="round"/>
<path d="M18.6823 28.0755L8.98175 8.78642L12.6302 2.70569L24.4765 26.0625" stroke="white" stroke-width="2" stroke-linecap="round" stroke-linejoin="round"/>
<path d="M31.25 28.0807L40.9531 8.78642L37.3047 2.70569L25.4688 26.0416" stroke="white" stroke-width="2" stroke-linecap="round" stroke-linejoin="round"/>
</svg>
