<svg width="24" height="24" viewBox="0 0 24 24" fill="none" xmlns="http://www.w3.org/2000/svg">
<g clip-path="url(#clip0_627_8442)">
<path fill-rule="evenodd" clip-rule="evenodd" d="M13.958 5.7267L12.8811 4.64978H10.7272L9.65033 5.7267V7.88054L10.7272 8.95746H12.8811L13.958 7.88054V5.7267ZM12.6582 6.26516V7.34208L12.3426 7.65762H11.2657L10.9502 7.34208V6.26516L11.2657 5.94962H12.3426L12.6582 6.26516Z" fill="#FFF"/>
<path fill-rule="evenodd" clip-rule="evenodd" d="M13.958 10.5728L12.8811 9.49585H10.7272L9.65033 10.5728V12.7266L10.7272 13.8035H12.8811L13.958 12.7266V10.5728ZM12.6582 11.1112V12.1881L12.3426 12.5037H11.2657L10.9502 12.1881V11.1112L11.2657 10.7957H12.3426L12.6582 11.1112Z" fill="#FFF"/>
<path fill-rule="evenodd" clip-rule="evenodd" d="M13.958 15.419L12.8811 14.342H10.7272L9.65033 15.419V17.5728L10.7272 18.6497H12.8811L13.958 17.5728V15.419ZM12.6582 15.9574V17.0343L12.3426 17.3499H11.2657L10.9502 17.0343V15.9574L11.2657 15.6419H12.3426L12.6582 15.9574Z" fill="#FFF"/>
</g>
<defs>
<clipPath id="clip0_627_8442">
<rect width="24" height="24" fill="white"/>
</clipPath>
</defs>
</svg>
