<svg width="24" height="24" viewBox="0 0 24 24" fill="none" xmlns="http://www.w3.org/2000/svg">
<path fill-rule="evenodd" clip-rule="evenodd" d="M10.1608 4.00037L8.46442 5.7712V9.31287L10.1608 11.0837H13.5537L15.2501 9.31287V5.7712L13.5537 4.00037H10.1608ZM10.7224 5.41703H12.9922L13.893 6.35735V8.72672L12.9922 9.66703H10.7224L9.82156 8.72672V6.35735L10.7224 5.41703Z" fill="white"/>
<path fill-rule="evenodd" clip-rule="evenodd" d="M9.21246 13.4794L9.82155 13.167H13.893L14.5021 13.4794L18.5735 19.146C18.8152 19.4824 18.7384 19.9511 18.402 20.1927C18.0656 20.4344 17.597 20.3577 17.3553 20.0213L13.5083 14.667H10.2062L6.3592 20.0213C6.11751 20.3577 5.64889 20.4344 5.3125 20.1927C4.97611 19.9511 4.89934 19.4824 5.14103 19.146L9.21246 13.4794Z" fill="white"/>
</svg>
